<svg width="307" height="236" viewBox="0 0 307 236" fill="none" xmlns="http://www.w3.org/2000/svg">
<path d="M217.62 142.186L222.144 161.114C225.363 174.585 244.608 174.352 247.501 160.808L257.62 113.428C260.789 98.5857 240.292 91.2693 233.347 104.764L218.705 133.216C217.282 135.98 216.897 139.163 217.62 142.186Z" fill="black"/>
<path d="M47.4846 108.692L59.1547 163.61C62.0003 177.001 80.9434 177.464 84.4397 164.228L90.2061 142.398C91.0382 139.248 90.657 135.9 89.138 133.018L71.7016 99.9297C64.6641 86.5751 44.3469 93.9267 47.4846 108.692Z" fill="black"/>
<path d="M111.281 161.405L141.738 228.204C146.352 238.323 160.715 238.354 165.372 228.255L196.183 161.441C197.362 158.883 197.679 156.011 197.086 153.258L166.28 10.3053C163.328 -3.39275 143.777 -3.37016 140.857 10.3347L110.394 153.303C109.814 156.028 110.124 158.869 111.281 161.405Z" fill="black"/>
<path d="M280.465 160.457C279.871 155.87 281.792 151.234 285.457 148.411C297.068 139.466 312.424 153.7 304.384 165.956C297.765 176.043 282.013 172.422 280.465 160.457Z" fill="black"/>
<path d="M21.0245 147.342C24.4421 149.937 26.3242 154.078 26.0323 158.359C25.2062 170.475 9.51048 174.681 2.73723 164.601C-5.29467 152.648 9.55578 138.633 21.0245 147.342Z" fill="black"/>
</svg>
